<svg width="17" height="16" viewBox="0 0 17 16" fill="none" xmlns="http://www.w3.org/2000/svg">
<g clip-path="url(#clip0_2157_131303)">
<path d="M6.8457 9.6234L8.28161 11.0593L11.1534 8.1875" stroke="#474655" stroke-width="1.3" stroke-linecap="round" stroke-linejoin="round"/>
<path d="M6.22991 4.41827H4.07607V6.34375H2.64017V4.41827H0.486328V2.98237H2.64017V0.984375H4.07607V2.98237H6.22991V4.41827Z" fill="#474655"/>
<path d="M3.57812 7.6875V12.6523C3.57812 13.0331 3.7294 13.3984 3.99869 13.6677C4.26797 13.937 4.6332 14.0882 5.01402 14.0882L12.9082 14.2031C13.289 14.2031 13.6542 14.0518 13.9235 13.7825C14.1928 13.5132 14.3441 13.148 14.3441 12.7672L14.3402 5.02837C14.3402 4.64754 14.1736 4.39299 13.9043 4.12371C13.635 3.85442 13.2698 3.70314 12.889 3.70314H7.96875" stroke="#474655" stroke-width="1.3" stroke-linejoin="round"/>
</g>
<defs>
<clipPath id="clip0_2157_131303">
<rect width="16" height="16" fill="white" transform="translate(0.486328)"/>
</clipPath>
</defs>
</svg>
