<svg width="17" height="16" viewBox="0 0 17 16" fill="none" xmlns="http://www.w3.org/2000/svg">
<g clip-path="url(#clip0_2157_131290)">
<path d="M14.4863 4.33333H12.373L11.153 3H7.15299C7.15299 3 7.15299 3.85938 7.15299 4.33333C9.48633 4.33333 10.5663 4.33333 10.5663 4.33333L11.7863 5.66667H14.4863V13.6667H3.81966V7.66667C3.81966 7.66667 3.0957 7.66667 2.48633 7.66667C2.48633 8 2.48633 13.6667 2.48633 13.6667C2.48633 14.4 3.08633 15 3.81966 15H14.4863C15.2197 15 15.8197 14.4 15.8197 13.6667V5.66667C15.8197 4.93333 15.2197 4.33333 14.4863 4.33333ZM5.81966 9.66667C5.81966 11.5067 7.313 13 9.153 13C10.993 13 12.4863 11.5067 12.4863 9.66667C12.4863 7.82667 10.993 6.33333 9.153 6.33333C7.313 6.33333 5.81966 7.82667 5.81966 9.66667ZM9.153 7.66667C10.253 7.66667 11.153 8.56667 11.153 9.66667C11.153 10.7667 10.253 11.6667 9.153 11.6667C8.053 11.6667 7.15299 10.7667 7.15299 9.66667C7.15299 8.56667 8.053 7.66667 9.153 7.66667ZM3.81966 4.33333H5.81966V3H3.81966V1H2.48633V3H0.486328V4.33333H2.48633V6.33333H3.81966V4.33333Z" fill="#474655"/>
<path d="M14.4863 4.33333H12.373L11.153 3H7.15299C7.15299 3 7.15299 3.85938 7.15299 4.33333C9.48633 4.33333 10.5663 4.33333 10.5663 4.33333L11.7863 5.66667H14.4863V13.6667H3.81966V7.66667C3.81966 7.66667 3.0957 7.66667 2.48633 7.66667C2.48633 8 2.48633 13.6667 2.48633 13.6667C2.48633 14.4 3.08633 15 3.81966 15H14.4863C15.2197 15 15.8197 14.4 15.8197 13.6667V5.66667C15.8197 4.93333 15.2197 4.33333 14.4863 4.33333ZM5.81966 9.66667C5.81966 11.5067 7.313 13 9.153 13C10.993 13 12.4863 11.5067 12.4863 9.66667C12.4863 7.82667 10.993 6.33333 9.153 6.33333C7.313 6.33333 5.81966 7.82667 5.81966 9.66667ZM9.153 7.66667C10.253 7.66667 11.153 8.56667 11.153 9.66667C11.153 10.7667 10.253 11.6667 9.153 11.6667C8.053 11.6667 7.15299 10.7667 7.15299 9.66667C7.15299 8.56667 8.053 7.66667 9.153 7.66667ZM3.81966 4.33333H5.81966V3H3.81966V1H2.48633V3H0.486328V4.33333H2.48633V6.33333H3.81966V4.33333Z" fill="#474655"/>
</g>
<defs>
<clipPath id="clip0_2157_131290">
<rect width="16" height="16" fill="white" transform="translate(0.486328)"/>
</clipPath>
</defs>
</svg>
