<svg width="16" height="16" viewBox="0 0 16 16" fill="none" xmlns="http://www.w3.org/2000/svg">
<path d="M8.66732 4.66667H7.33398V7.33333H4.66732V8.66666H7.33398V11.3333H8.66732V8.66666H11.334V7.33333H8.66732V4.66667ZM8.00065 1.33333C4.32732 1.33333 1.33398 4.32667 1.33398 8C1.33398 11.6733 4.32732 14.6667 8.00065 14.6667C11.674 14.6667 14.6673 11.6733 14.6673 8C14.6673 4.32667 11.674 1.33333 8.00065 1.33333ZM8.00065 13.3333C5.06065 13.3333 2.66732 10.94 2.66732 8C2.66732 5.06 5.06065 2.66667 8.00065 2.66667C10.9407 2.66667 13.334 5.06 13.334 8C13.334 10.94 10.9407 13.3333 8.00065 13.3333Z" fill="white"/>
</svg>
