<svg width="17" height="16" viewBox="0 0 17 16" fill="none" xmlns="http://www.w3.org/2000/svg">
<path d="M13.8141 6.74778L14.6386 5.92333C15.2452 5.31667 15.2452 4.32889 14.6386 3.72222L13.5419 2.62556C12.9352 2.01889 11.9474 2.01889 11.3408 2.62556L10.5163 3.45L13.8141 6.74778ZM10.5163 7.85222L4.91633 13.4444H3.81966V12.3478L9.41188 6.75556L10.5163 7.85222ZM9.41188 4.54667L2.26411 11.7022V15H5.56188L12.7097 7.85222L9.41188 4.54667ZM13.9308 12.2778C13.9308 13.9811 11.9552 15 10.0419 15C9.61411 15 9.26411 14.65 9.26411 14.2222C9.26411 13.7944 9.61411 13.4444 10.0419 13.4444C11.2397 13.4444 12.3752 12.8767 12.3752 12.2778C12.3752 11.9122 12.0019 11.6011 11.4186 11.3444L12.5697 10.1933C13.4019 10.6833 13.9308 11.3367 13.9308 12.2778ZM2.71522 9.05C1.96077 8.61444 1.48633 8.04667 1.48633 7.22222C1.48633 5.82222 2.95633 5.17667 4.25522 4.60889C5.05633 4.25111 6.15299 3.76889 6.15299 3.33333C6.15299 3.01444 5.54633 2.55556 4.59744 2.55556C3.61744 2.55556 3.19744 3.03 3.17411 3.05333C2.90188 3.37222 2.41188 3.41111 2.08522 3.14667C1.92925 3.01857 1.82968 2.83445 1.80787 2.63381C1.78607 2.43316 1.84375 2.23195 1.96855 2.07333C2.05411 1.96444 2.85522 1 4.59744 1C6.33966 1 7.70855 2.02667 7.70855 3.33333C7.70855 4.78778 6.20744 5.44889 4.87744 6.03222C4.14633 6.35111 3.04188 6.83333 3.04188 7.22222C3.04188 7.46333 3.37633 7.68889 3.87411 7.89111L2.71522 9.05Z" fill="#474655"/>
</svg>
