<svg width="24" height="24" viewBox="0 0 24 24" fill="none" xmlns="http://www.w3.org/2000/svg">
<path fill-rule="evenodd" clip-rule="evenodd" d="M19.0005 3C19.5307 3.00013 20.0391 3.21098 20.4141 3.58594C20.789 3.9609 20.9999 4.46925 21 4.99951V19.0005C20.9997 20.1001 20.1001 20.9997 19.0005 21H4.99951C4.46925 20.9999 3.9609 20.789 3.58594 20.4141C3.21098 20.0391 3.00013 19.5307 3 19.0005V4.99951C3.00013 4.46925 3.21098 3.9609 3.58594 3.58594C3.9609 3.21098 4.46925 3.00013 4.99951 3H19.0005ZM4.99951 7.00049V19.0005H10.9995V7.00049H4.99951ZM13.0005 7.00049V19.0005H19.0005V7.00049H13.0005Z" fill="#474655"/>
</svg>
