<svg width="16" height="16" viewBox="0 0 16 16" fill="none" xmlns="http://www.w3.org/2000/svg">
<path fill-rule="evenodd" clip-rule="evenodd" d="M13.4448 1C13.8572 1.0001 14.2526 1.1641 14.5443 1.45573C14.8359 1.74736 14.9999 2.14275 15 2.55518V13.4448C14.9998 14.3001 14.3001 14.9998 13.4448 15H2.55518C2.14275 14.9999 1.74736 14.8359 1.45573 14.5443C1.1641 14.2526 1.0001 13.8572 1 13.4448V2.55518C1.0001 2.14275 1.1641 1.74736 1.45573 1.45573C1.74736 1.1641 2.14275 1.0001 2.55518 1H13.4448ZM2.55518 4.11149V13.4448H7.22184V4.11149H2.55518ZM8.77816 4.11149V13.4448H13.4448V4.11149H8.77816Z" fill="#474655"/>
</svg>
